<svg xmlns="http://www.w3.org/2000/svg" viewBox="20 284 26 26"><path d="M37.3332 293.833C37.3332 293.058 37.3332 292.671 37.248 292.353C37.0168 291.49 36.3429 290.816 35.4802 290.585C35.1623 290.5 34.7748 290.5 33.9998 290.5C33.2249 290.5 32.8374 290.5 32.5195 290.585C31.6567 290.816 30.9829 291.49 30.7517 292.353C30.6665 292.671 30.6665 293.058 30.6665 293.833M28.3332 305.5H39.6665C40.5999 305.5 41.0666 305.5 41.4232 305.318C41.7368 305.159 41.9917 304.904 42.1515 304.59C42.3332 304.233 42.3332 303.767 42.3332 302.833V296.5C42.3332 295.567 42.3332 295.1 42.1515 294.743C41.9917 294.43 41.7368 294.175 41.4232 294.015C41.0666 293.833 40.5999 293.833 39.6665 293.833H28.3332C27.3997 293.833 26.933 293.833 26.5765 294.015C26.2629 294.175 26.0079 294.43 25.8482 294.743C25.6665 295.1 25.6665 295.567 25.6665 296.5V302.833C25.6665 303.767 25.6665 304.233 25.8482 304.59C26.0079 304.904 26.2629 305.159 26.5765 305.318C26.933 305.5 27.3997 305.5 28.3332 305.5Z" stroke="white" stroke-width="1.5" stroke-linecap="round" stroke-linejoin="round"/><path d="M57.1748 292.972C60.0117 292.972 61.7959 294.934 61.7959 298.071C61.7959 301.209 60.0117 303.164 57.1748 303.164C54.3311 303.164 52.5537 301.209 52.5537 298.071C52.5537 294.934 54.3311 292.972 57.1748 292.972ZM57.1748 294.318C55.3018 294.318 54.1191 295.768 54.1191 298.071C54.1191 300.368 55.3018 301.817 57.1748 301.817C59.0479 301.817 60.2236 300.368 60.2236 298.071C60.2236 295.768 59.0479 294.318 57.1748 294.318ZM66.9365 295.501C68.8301 295.501 70.0742 296.984 70.0742 299.288C70.0742 301.585 68.8369 303.075 66.9707 303.075C65.9043 303.075 65.0635 302.604 64.6191 301.783H64.5918V305.461H63.1084V295.576H64.5371V296.807H64.5713C64.9883 296.007 65.9043 295.501 66.9365 295.501ZM66.5605 301.817C67.7637 301.817 68.5566 300.826 68.5566 299.288C68.5566 297.757 67.7637 296.759 66.5605 296.759C65.3848 296.759 64.585 297.777 64.5781 299.288C64.585 300.806 65.3779 301.817 66.5605 301.817ZM74.3467 296.69C73.2803 296.69 72.5078 297.47 72.4258 298.611H76.1924C76.1582 297.456 75.4268 296.69 74.3467 296.69ZM76.1855 300.826H77.6006C77.3887 302.159 76.083 303.089 74.415 303.089C72.2617 303.089 70.9219 301.64 70.9219 299.315C70.9219 296.991 72.2754 295.48 74.3535 295.48C76.3906 295.48 77.6758 296.896 77.6758 299.145V299.664H72.4189V299.753C72.4189 301.038 73.2256 301.886 74.4424 301.886C75.3037 301.886 75.9805 301.476 76.1855 300.826ZM78.8721 303V295.576H80.2871V296.827H80.3145C80.5469 296 81.2305 295.501 82.1055 295.501C82.3242 295.501 82.5088 295.521 82.625 295.549V296.937C82.502 296.889 82.2422 296.848 81.9482 296.848C80.9707 296.848 80.3555 297.524 80.3555 298.57V303H78.8721ZM86.002 301.893C87.1025 301.893 87.9365 301.188 87.9365 300.211V299.63L86.1318 299.753C85.1201 299.814 84.5938 300.19 84.5938 300.847C84.5938 301.482 85.1475 301.893 86.002 301.893ZM85.6055 303.075C84.1221 303.075 83.0967 302.2 83.0967 300.874C83.0967 299.575 84.1016 298.823 85.9336 298.707L87.9365 298.591V298.017C87.9365 297.169 87.3691 296.704 86.3779 296.704C85.5713 296.704 84.9834 297.121 84.8535 297.764H83.4658C83.5068 296.451 84.751 295.48 86.4189 295.48C88.2305 295.48 89.3994 296.438 89.3994 297.907V303H87.9844V301.763H87.9502C87.54 302.569 86.6172 303.075 85.6055 303.075ZM91.334 293.908H92.8105V295.576H94.2324V296.745H92.8105V300.895C92.8105 301.537 93.0977 301.838 93.7197 301.838C93.877 301.838 94.1299 301.817 94.2256 301.804V302.973C94.0615 303.014 93.7129 303.048 93.3916 303.048C91.9082 303.048 91.334 302.48 91.334 301.045V296.745H90.3086V295.576H91.334V293.908ZM98.498 303.089C96.3516 303.089 94.9844 301.626 94.9844 299.288C94.9844 296.957 96.3584 295.48 98.498 295.48C100.638 295.48 102.005 296.95 102.005 299.288C102.005 301.626 100.645 303.089 98.498 303.089ZM98.498 301.858C99.7559 301.858 100.501 300.908 100.501 299.288C100.501 297.668 99.7559 296.711 98.498 296.711C97.2402 296.711 96.4883 297.675 96.4883 299.288C96.4883 300.908 97.2402 301.858 98.498 301.858ZM103.194 303V295.576H104.609V296.827H104.637C104.869 296 105.553 295.501 106.428 295.501C106.646 295.501 106.831 295.521 106.947 295.549V296.937C106.824 296.889 106.564 296.848 106.271 296.848C105.293 296.848 104.678 297.524 104.678 298.57V303H103.194ZM107.774 297.688C107.774 296.383 108.943 295.487 110.652 295.487C112.279 295.487 113.455 296.403 113.489 297.695H112.095C112.033 297.039 111.466 296.629 110.618 296.629C109.777 296.629 109.217 297.019 109.217 297.606C109.217 298.058 109.586 298.365 110.372 298.557L111.603 298.851C113.1 299.213 113.653 299.753 113.653 300.847C113.653 302.173 112.396 303.089 110.598 303.089C108.868 303.089 107.686 302.193 107.576 300.854H109.039C109.155 301.564 109.729 301.954 110.673 301.954C111.596 301.954 112.177 301.571 112.177 300.97C112.177 300.498 111.883 300.252 111.104 300.054L109.777 299.726C108.438 299.397 107.774 298.714 107.774 297.688Z" fill="white"/></svg>