<svg xmlns="http://www.w3.org/2000/svg" viewBox="20 480 26 26"><path d="M40.6668 489.834V489.667C40.6668 488.267 40.6668 487.567 40.3943 487.032C40.1547 486.562 39.7722 486.179 39.3018 485.939C38.767 485.667 38.067 485.667 36.6668 485.667H31.3335C29.9334 485.667 29.2333 485.667 28.6985 485.939C28.2281 486.179 27.8457 486.562 27.606 487.032C27.3335 487.567 27.3335 488.267 27.3335 489.667V498.334C27.3335 499.734 27.3335 500.434 27.606 500.969C27.8457 501.439 28.2281 501.821 28.6985 502.061C29.2333 502.334 29.9334 502.334 31.3335 502.334H34.4168M39.0002 499V494.417C39.0002 493.727 39.5598 493.167 40.2502 493.167C40.9405 493.167 41.5002 493.727 41.5002 494.417V499C41.5002 500.381 40.3809 501.5 39.0002 501.5C37.6195 501.5 36.5002 500.381 36.5002 499V495.667" stroke="white" stroke-width="1.5" stroke-linecap="round" stroke-linejoin="round"/><path d="M52.4717 496.252H53.9824C54.0918 497.229 55.042 497.872 56.3408 497.872C57.585 497.872 58.4805 497.229 58.4805 496.348C58.4805 495.582 57.9404 495.124 56.6621 494.81L55.3838 494.502C53.5723 494.064 52.7314 493.217 52.7314 491.843C52.7314 490.141 54.2148 488.972 56.3203 488.972C58.4053 488.972 59.834 490.141 59.8818 491.843H58.3916C58.3027 490.858 57.4893 490.264 56.2998 490.264C55.1104 490.264 54.2969 490.865 54.2969 491.74C54.2969 492.438 54.8164 492.848 56.0879 493.162L57.1748 493.429C59.1982 493.907 60.0391 494.721 60.0391 496.163C60.0391 498.009 58.5693 499.164 56.2314 499.164C54.0439 499.164 52.5674 498.036 52.4717 496.252ZM61.707 489.908H63.1836V491.576H64.6055V492.745H63.1836V496.895C63.1836 497.537 63.4707 497.838 64.0928 497.838C64.25 497.838 64.5029 497.817 64.5986 497.804V498.973C64.4346 499.014 64.0859 499.048 63.7646 499.048C62.2812 499.048 61.707 498.48 61.707 497.045V492.745H60.6816V491.576H61.707V489.908ZM68.8711 499.089C66.7246 499.089 65.3574 497.626 65.3574 495.288C65.3574 492.957 66.7314 491.48 68.8711 491.48C71.0107 491.48 72.3779 492.95 72.3779 495.288C72.3779 497.626 71.0176 499.089 68.8711 499.089ZM68.8711 497.858C70.1289 497.858 70.874 496.908 70.874 495.288C70.874 493.668 70.1289 492.711 68.8711 492.711C67.6133 492.711 66.8613 493.675 66.8613 495.288C66.8613 496.908 67.6133 497.858 68.8711 497.858ZM73.5674 499V491.576H74.9824V492.827H75.0098C75.2422 492 75.9258 491.501 76.8008 491.501C77.0195 491.501 77.2041 491.521 77.3203 491.549V492.937C77.1973 492.889 76.9375 492.848 76.6436 492.848C75.666 492.848 75.0508 493.524 75.0508 494.57V499H73.5674ZM81.0596 492.69C79.9932 492.69 79.2207 493.47 79.1387 494.611H82.9053C82.8711 493.456 82.1396 492.69 81.0596 492.69ZM82.8984 496.826H84.3135C84.1016 498.159 82.7959 499.089 81.1279 499.089C78.9746 499.089 77.6348 497.64 77.6348 495.315C77.6348 492.991 78.9883 491.48 81.0664 491.48C83.1035 491.48 84.3887 492.896 84.3887 495.145V495.664H79.1318V495.753C79.1318 497.038 79.9385 497.886 81.1553 497.886C82.0166 497.886 82.6934 497.476 82.8984 496.826Z" fill="white"/></svg>