<svg width="22" height="22" viewBox="0 0 22 22" fill="none" xmlns="http://www.w3.org/2000/svg">
<g clip-path="url(#clip0_777_15039)">
<rect x="0.899902" y="0.899902" width="20" height="20" rx="10" fill="white"/>
<path d="M10.8999 20.8999C16.4228 20.8999 20.8999 16.4228 20.8999 10.8999C20.8999 5.37705 16.4228 0.899902 10.8999 0.899902C5.37705 0.899902 0.899902 5.37705 0.899902 10.8999C0.899902 16.4228 5.37705 20.8999 10.8999 20.8999Z" fill="#FFDA44"/>
<path d="M3.82895 17.9711C4.24844 18.3906 4.69602 18.7647 5.16551 19.0941L19.094 5.16555C18.7647 4.69605 18.3906 4.24848 17.9711 3.82898C17.5516 3.40949 17.104 3.03543 16.6345 2.70605L2.70605 16.6346C3.03535 17.104 3.40949 17.5516 3.82895 17.9711Z" fill="black"/>
<path d="M3.82891 3.82789C0.674145 6.98273 0.0684805 11.7207 2.01079 15.4841L15.4851 2.0098C11.7217 0.0674956 6.98372 0.673199 3.82891 3.82789Z" fill="#6DA544"/>
<path d="M17.9706 17.9706C21.1254 14.8159 21.731 10.0779 19.7888 6.31445L6.31445 19.7888C10.0778 21.7311 14.8158 21.1254 17.9706 17.9706Z" fill="#338AF3"/>
</g>
<rect x="0.449902" y="0.449902" width="20.9" height="20.9" rx="10.45" stroke="white" stroke-width="0.9"/>
<defs>
<clipPath id="clip0_777_15039">
<rect x="0.899902" y="0.899902" width="20" height="20" rx="10" fill="white"/>
</clipPath>
</defs>
</svg>
